<svg xmlns="http://www.w3.org/2000/svg" style="display: none">

  <symbol viewBox="0 0 6 9" id="arrow-left">
    <path d="M1 8.5l4-4-4-4" stroke-linejoin="round" />
  </symbol>

  <symbol viewBox="0 0 36 31" id="detective">
    <path d="M18 9.758a.706.706 0 00-.703.708c0 .391.315.708.703.708a.706.706 0 00.703-.708.706.706 0 00-.703-.708z" />
    <path d="M33.89 14.007h-2.735C29.712 9.859 27.62 2.587 23.829.53c-1.896-1.028-3.688-.31-4.362 1.148A1.59 1.59 0 0118 2.625a1.59 1.59 0 01-1.467-.946C15.883.27 14.133-.514 12.304.38 8.453 2.264 6.3 9.828 4.845 14.007H2.11c-1.166 0-2.11.95-2.11 2.123a2.12 2.12 0 002.11 2.124h31.78c1.166 0 2.11-.95 2.11-2.124a2.12 2.12 0 00-2.11-2.124zM7.316 11.174h7.872a.706.706 0 00.704-.708.706.706 0 00-.704-.708h-7.38c2.12-5.896 4.1-7.609 5.111-8.104 1.104-.54 2.013-.088 2.34.622A2.996 2.996 0 0018 4.041a2.996 2.996 0 002.742-1.765c.337-.73 1.25-1.134 2.42-.5 1.016.552 2.99 2.322 5.03 7.982h-7.38a.706.706 0 00-.703.708c0 .391.315.708.703.708h7.873c.355 1.033.725 2.098.98 2.833H6.335c.255-.733.623-1.796.98-2.833zm26.576 5.665H2.109a.706.706 0 01-.703-.708c0-.391.315-.708.703-.708h31.782c.387 0 .703.317.703.708 0 .39-.315.708-.703.708zm-17.298 4.248H5.344a.705.705 0 00-.703.708v2.832C4.64 28.142 7.479 31 10.969 31a6.316 6.316 0 005.915-4.105 2.681 2.681 0 012.232 0A6.315 6.315 0 0025.031 31c3.49 0 6.328-2.859 6.328-6.373v-2.832a.706.706 0 00-.703-.708h-11.25a.706.706 0 00-.703.708v.708h-1.406v-.708a.705.705 0 00-.703-.708zm-5.625 8.497c-2.714 0-4.922-2.224-4.922-4.956v-2.125h9.844v2.125c0 2.74-2.197 4.956-4.922 4.956zm9.14-7.08h9.844v2.123c0 2.733-2.208 4.957-4.922 4.957-2.732 0-4.922-2.223-4.922-4.956v-2.125zm-1.406 1.415v.709c0 .226.013.451.036.675a4.08 4.08 0 00-1.478 0 6.62 6.62 0 00.036-.675v-.709h1.406z" />
    <path d="M10.969 26.752a2.12 2.12 0 01-2.11-2.125.705.705 0 00-.703-.708.705.705 0 00-.703.708c0 1.952 1.577 3.54 3.516 3.54a.706.706 0 00.703-.707.706.706 0 00-.703-.708zm14.062 1.416c1.939 0 3.516-1.589 3.516-3.54a.706.706 0 00-.703-.709.706.706 0 00-.703.708 2.12 2.12 0 01-2.11 2.125.706.706 0 00-.703.708c0 .39.315.708.703.708z" />
  </symbol>

  <symbol viewBox="0 0 19 14" id="envelope">
    <path d="M16.68 0H2.323C1.042 0 0 1.009 0 2.25v9.5C0 12.991 1.042 14 2.323 14h14.354C17.958 14 19 12.991 19 11.75V2.253C19.004 1.013 17.962 0 16.68 0zm1.262 11.75c0 .674-.566 1.222-1.262 1.222H2.323c-.695 0-1.262-.548-1.262-1.222V2.253c0-.673.567-1.221 1.262-1.221h14.354c.695 0 1.262.548 1.262 1.221v9.497h.003z" />
    <path d="M11.983 6.882l4.646-4.035a.505.505 0 00.04-.727.546.546 0 00-.751-.038L9.51 7.651 8.26 6.57c-.004-.004-.008-.008-.008-.012a.78.78 0 00-.087-.072L3.078 2.078a.542.542 0 00-.75.042.502.502 0 00.043.727l4.702 4.07L2.39 11.16a.504.504 0 00-.023.727.541.541 0 00.75.027l4.754-4.305L9.16 8.724a.54.54 0 00.708-.004l1.325-1.15 4.725 4.348c.102.095.236.14.366.14a.537.537 0 00.385-.16.504.504 0 00-.02-.726l-4.666-4.29z" />
  </symbol>

  <symbol viewBox="0 0 27 27" id="fb">
    <path fill-rule="evenodd" clip-rule="evenodd" d="M27 13.5C27 6.045 20.956 0 13.5 0S0 6.045 0 13.5C0 20.956 6.044 27 13.5 27S27 20.956 27 13.5zM16.884 9.294h-1.74c-.469 0-.798.397-.798.891v.775h2.485l-.402 2.517h-2.083v6.747h-2.543v-6.747h-1.688V10.96h1.688V9.677h.004c.045-1.463.553-2.856 3.031-2.944v-.01h2.046v2.571z" />
  </symbol>

  <symbol viewBox="0 0 35 35" id="hired">
    <path d="M31.264 27.893a3.132 3.132 0 00.597-1.842v-4.108a.684.684 0 00-.684-.683h-3.055a2.564 2.564 0 00-2.561 2.561v2.23c0 .687.222 1.323.596 1.841a4.402 4.402 0 00-1.336.445 5.817 5.817 0 00-4.294-2.56l-.021-.005a4.02 4.02 0 001.03-2.69V17.5a.684.684 0 00-.684-.684H16.7a3.24 3.24 0 00-3.236 3.236v3.03a4.02 4.02 0 001.03 2.69l-.021.005a5.816 5.816 0 00-4.294 2.56c-.42-.22-.87-.369-1.337-.445a3.132 3.132 0 00.597-1.84v-4.109a.684.684 0 00-.684-.683H5.7a2.564 2.564 0 00-2.56 2.561v2.23c0 .688.221 1.324.596 1.842A4.464 4.464 0 000 32.291v2.025c0 .378.306.684.684.684h33.632a.684.684 0 00.684-.684v-2.025a4.464 4.464 0 00-3.736-4.398zM4.506 23.821c0-.658.536-1.194 1.194-1.194h2.372v.832a.74.74 0 01-.74.74H4.506v-.378zm0 1.746h2.826c.26 0 .51-.048.74-.135v.62c0 .982-.8 1.782-1.783 1.782-.983 0-1.783-.8-1.783-1.783v-.484zm2.224 3.634l-.44.44-.442-.44h.882zm2.468 2.363v2.069h-7.83V32.29a3.095 3.095 0 012.588-3.049l1.85 1.85a.684.684 0 00.966 0l1.85-1.85c.327.053.642.158.934.312a5.784 5.784 0 00-.358 2.01zm8.302-5.813a2.672 2.672 0 01-2.668-2.668v-.904h4.085c.453 0 .88-.115 1.252-.319v1.223a2.672 2.672 0 01-2.669 2.669zm1.192 1.368L17.5 28.31l-1.192-1.191h2.384zm-3.86-7.067a1.87 1.87 0 011.868-1.868h3.469v1.377c0 .69-.562 1.251-1.252 1.251H14.83v-.76zm9.603 13.58h-13.87v-1.366h4.451a.684.684 0 100-1.368h-4.4a4.455 4.455 0 013.8-3.738l2.6 2.6a.682.682 0 00.967 0l2.601-2.6a4.451 4.451 0 013.85 4.404v2.069zm2.493-9.81c0-.66.536-1.195 1.194-1.195h2.372v.832a.74.74 0 01-.74.74h-2.826v-.378zm0 1.745h2.825c.26 0 .51-.048.74-.135v.62c0 .982-.799 1.782-1.782 1.782s-1.783-.8-1.783-1.783v-.484zm2.224 3.634l-.441.44-.44-.44h.88zm-3.35 4.432v-2.069c0-.706-.127-1.383-.358-2.01.292-.154.606-.26.933-.312l1.85 1.85a.684.684 0 00.967 0l1.85-1.85a3.095 3.095 0 012.589 3.05v1.34h-7.831zM20.869 4.466a.684.684 0 00-.967 0l-3.354 3.355-1.45-1.45a.684.684 0 10-.967.967l1.933 1.933a.684.684 0 00.967 0l3.838-3.838a.684.684 0 000-.966z" />
    <path d="M20.295.593a.684.684 0 00-.557 1.248 5.51 5.51 0 013.264 5.028A5.508 5.508 0 0117.5 12.37a5.508 5.508 0 01-5.502-5.501 5.515 5.515 0 013.24-5.017.683.683 0 10-.563-1.246 6.885 6.885 0 00-4.044 6.263 6.877 6.877 0 006.869 6.868 6.876 6.876 0 006.869-6.868A6.88 6.88 0 0020.295.593z" />
    <path d="M17.524 0H17.5a.684.684 0 000 1.367h.021A.684.684 0 0017.524 0zm.459 31.099a.688.688 0 00-.483-.2.689.689 0 00-.483.2.689.689 0 00-.2.483.684.684 0 00.683.683.688.688 0 00.684-.683.689.689 0 00-.2-.483z" />
  </symbol>

  <symbol viewBox="0 0 202 52" id="logo">
    <path d="M76.936 24.337c0-.724-.188-1.27-.562-1.636-.366-.374-1.038-.76-2.014-1.16-1.782-.675-3.064-1.464-3.845-2.368-.782-.911-1.172-1.985-1.172-3.222 0-1.498.529-2.698 1.587-3.601 1.066-.912 2.417-1.368 4.052-1.368 1.09 0 2.063.232 2.918.696a4.708 4.708 0 011.965 1.941c.464.838.696 1.79.696 2.857h-3.577c0-.83-.179-1.461-.537-1.892-.35-.44-.858-.66-1.526-.66-.626 0-1.115.188-1.465.562-.35.366-.524.862-.524 1.49 0 .487.195.93.586 1.33.39.39 1.082.797 2.075 1.22 1.733.627 2.99 1.396 3.772 2.308.79.911 1.184 2.07 1.184 3.479 0 1.546-.493 2.754-1.477 3.625-.985.87-2.324 1.306-4.016 1.306-1.148 0-2.194-.236-3.138-.708a5.35 5.35 0 01-2.221-2.026c-.53-.88-.794-1.917-.794-3.113h3.601c0 1.025.2 1.77.599 2.234.398.464 1.05.696 1.953.696 1.253 0 1.88-.664 1.88-1.99zm9.07-8.545l.097 1.22c.773-.976 1.794-1.464 3.064-1.464 1.318 0 2.25.594 2.795 1.782.757-1.188 1.835-1.782 3.235-1.782 2.311 0 3.495 1.599 3.552 4.797V29h-3.454v-8.435c0-.765-.106-1.31-.317-1.636-.212-.325-.57-.488-1.075-.488-.643 0-1.123.395-1.44 1.184l.024.415V29h-3.454v-8.41c0-.758-.102-1.303-.305-1.636-.204-.342-.566-.513-1.087-.513-.594 0-1.066.321-1.416.964V29h-3.454V15.792h3.234zM107.586 29c-.097-.203-.195-.545-.293-1.025-.618.846-1.456 1.27-2.514 1.27-1.107 0-2.027-.367-2.759-1.1-.724-.732-1.086-1.68-1.086-2.844 0-1.383.439-2.453 1.318-3.21.887-.757 2.161-1.144 3.821-1.16h1.05V19.87c0-.594-.102-1.013-.306-1.257-.203-.244-.5-.366-.891-.366-.862 0-1.294.504-1.294 1.513h-3.454c0-1.22.455-2.226 1.367-3.015.919-.797 2.079-1.196 3.479-1.196 1.448 0 2.567.378 3.357 1.135.797.749 1.196 1.823 1.196 3.223v6.213c.016 1.14.179 2.03.488 2.674V29h-3.479zm-2.038-2.466c.382 0 .708-.077.976-.232.269-.154.468-.337.599-.55v-2.746h-.831c-.585 0-1.049.188-1.391.562-.334.374-.501.875-.501 1.501 0 .977.383 1.465 1.148 1.465zm14.05-7.41l-1.147-.097c-.944 0-1.583.415-1.917 1.245V29h-3.467V15.792h3.26l.097 1.428c.546-1.115 1.298-1.672 2.259-1.672.39 0 .708.053.952.159l-.037 3.418zm6.409-6.58v3.248h1.77v2.6h-1.77v6.555c0 .521.069.88.207 1.075.147.195.424.293.83.293.334 0 .607-.029.818-.086l-.024 2.686c-.586.22-1.221.33-1.904.33-2.23 0-3.357-1.279-3.382-3.834v-7.019h-1.526v-2.6h1.526v-3.247h3.455zM135.615 29V11.227h4.699c2.076 0 3.728.659 4.957 1.977 1.236 1.319 1.867 3.125 1.892 5.42v2.88c0 2.336-.619 4.172-1.856 5.506-1.229 1.327-2.925 1.99-5.09 1.99h-4.602zm3.589-14.783v11.804h1.074c1.196 0 2.038-.313 2.527-.94.488-.634.744-1.725.769-3.27v-3.09c0-1.66-.232-2.815-.696-3.466-.464-.66-1.253-1.005-2.368-1.038h-1.306zm15.71 15.027c-1.774 0-3.157-.529-4.15-1.587-.993-1.058-1.49-2.571-1.49-4.54v-1.05c0-2.084.456-3.691 1.368-4.822.911-1.132 2.217-1.697 3.918-1.697 1.66 0 2.909.533 3.748 1.599.838 1.058 1.265 2.629 1.281 4.712v1.697h-6.872c.049.976.264 1.692.647 2.148.382.448.972.671 1.77.671 1.155 0 2.12-.394 2.893-1.184l1.355 2.088c-.423.586-1.038 1.062-1.843 1.428a6.392 6.392 0 01-2.625.537zm-2.173-8.105h3.455v-.318c-.016-.79-.147-1.387-.391-1.794-.244-.407-.667-.61-1.269-.61-.603 0-1.042.215-1.319.646-.268.432-.427 1.123-.476 2.076zm12.964 2.978l1.672-8.325h3.602L167.353 29h-3.296l-3.638-13.208h3.614l1.672 8.325zM176.228 29h-3.467V15.792h3.467V29zm-3.626-16.626c0-.537.171-.976.513-1.318.342-.342.797-.513 1.367-.513s1.025.17 1.367.513c.342.342.513.78.513 1.318 0 .529-.171.968-.513 1.318-.334.35-.789.525-1.367.525s-1.038-.175-1.379-.525c-.334-.35-.501-.789-.501-1.318zm11.072 14.001c1.001 0 1.509-.65 1.526-1.953h3.247c-.016 1.44-.46 2.604-1.331 3.492-.871.887-1.994 1.33-3.369 1.33-1.701 0-2.999-.529-3.894-1.587-.895-1.058-1.351-2.616-1.367-4.675v-1.05c0-2.075.439-3.658 1.318-4.748.887-1.09 2.193-1.636 3.919-1.636 1.456 0 2.604.451 3.442 1.355.838.895 1.266 2.169 1.282 3.82H185.2c-.008-.74-.131-1.31-.367-1.708-.236-.4-.626-.599-1.171-.599-.603 0-1.034.216-1.294.648-.261.423-.399 1.249-.415 2.477v1.343c0 1.075.053 1.827.158 2.259.106.423.281.736.525.94.244.195.59.293 1.038.293zm12.06 2.87c-1.774 0-3.157-.53-4.15-1.588-.993-1.058-1.489-2.571-1.489-4.54v-1.05c0-2.084.455-3.691 1.367-4.822.911-1.132 2.218-1.697 3.918-1.697 1.661 0 2.91.533 3.748 1.599.838 1.058 1.265 2.629 1.282 4.712v1.697h-6.873c.049.976.265 1.692.647 2.148.383.448.973.671 1.77.671 1.156 0 2.12-.394 2.893-1.184l1.355 2.088c-.423.586-1.037 1.062-1.843 1.428a6.392 6.392 0 01-2.625.537zm-2.172-8.106h3.454v-.318c-.016-.79-.146-1.387-.391-1.794-.244-.407-.667-.61-1.269-.61-.602 0-1.042.215-1.318.646-.269.432-.428 1.123-.476 2.076z" fill="#fff" />
    <path d="M70.947 44.96l1.29-4.3h1.517l-2.52 7.3c-.386 1.067-1.043 1.6-1.968 1.6a2.55 2.55 0 01-.686-.105v-1.102l.27.018c.359 0 .629-.066.808-.2.184-.128.328-.347.434-.655l.205-.545-2.227-6.31h1.536l1.341 4.3zm7.395.288l1.875-4.588h1.781V47h-1.424v-4.195L78.828 47h-.967l-1.752-4.219V47h-1.423v-6.34h1.792l1.864 4.588zM88.97 47h-1.424v-2.56H85.08V47h-1.424v-6.34h1.424v2.643h2.467V40.66h1.424V47zm3.052-4.324h1.395c.52 0 .973.09 1.36.27.386.179.679.431.878.755.203.324.305.701.305 1.131 0 .652-.23 1.176-.692 1.57-.46.395-1.074.594-1.84.598H90.6v-6.34h1.424v2.016zM98.44 47h-1.423v-6.34h1.423V47zm-6.416-3.182v2.045h1.39c.347 0 .62-.086.82-.258.203-.175.304-.423.304-.744 0-.32-.1-.572-.299-.755-.195-.188-.46-.284-.797-.288h-1.418zm10.916 3.3c-.902 0-1.634-.284-2.197-.85-.558-.57-.838-1.328-.838-2.274v-.176c0-.633.121-1.197.364-1.693.246-.5.589-.889 1.031-1.166a2.715 2.715 0 011.476-.416c.864 0 1.53.275 1.998.826.473.55.709 1.33.709 2.338v.574h-4.142c.043.524.217.938.521 1.242.309.305.696.457 1.16.457.653 0 1.184-.263 1.594-.79l.768.732a2.58 2.58 0 01-1.02.885c-.422.207-.896.31-1.424.31zm-.169-5.433c-.391 0-.708.137-.95.41-.238.274-.39.655-.457 1.143h2.713v-.105c-.031-.477-.158-.836-.381-1.078-.222-.246-.531-.37-.925-.37zm11.8.106h-2.056V47h-1.424v-5.209h-2.033v-1.13h5.513v1.13zm3.369 5.326c-.902 0-1.634-.283-2.197-.85-.558-.57-.838-1.328-.838-2.273v-.176c0-.633.121-1.197.364-1.693.246-.5.589-.889 1.031-1.166a2.715 2.715 0 011.476-.416c.864 0 1.53.275 1.998.826.473.55.709 1.33.709 2.338v.574h-4.142c.043.524.217.938.521 1.242.309.305.696.457 1.16.457.653 0 1.184-.263 1.594-.79l.768.732a2.58 2.58 0 01-1.02.885c-.422.207-.896.31-1.424.31zm-.169-5.431c-.391 0-.708.136-.95.41-.238.273-.39.654-.457 1.142h2.713v-.105c-.031-.477-.158-.836-.381-1.078-.222-.246-.531-.37-.925-.37zm6.099 1.06l1.207-2.086h1.582l-1.939 3.123L126.723 47h-1.571l-1.265-2.168-1.26 2.168h-1.582l2.004-3.217-1.934-3.123h1.571l1.183 2.086zM132.998 47h-1.424v-2.56h-2.467V47h-1.423v-6.34h1.423v2.643h2.467V40.66h1.424V47zm1.254-3.228c0-.622.123-1.18.369-1.676.246-.5.592-.883 1.037-1.149.446-.27.957-.404 1.535-.404.856 0 1.549.275 2.08.826.536.55.825 1.281.868 2.191l.005.334c0 .626-.121 1.184-.363 1.676a2.638 2.638 0 01-1.031 1.143c-.445.27-.961.404-1.547.404-.894 0-1.611-.297-2.15-.89-.535-.598-.803-1.393-.803-2.385v-.07zm1.424.123c0 .652.135 1.164.404 1.535.27.367.645.55 1.125.55.481 0 .854-.187 1.119-.562.27-.375.405-.924.405-1.646 0-.641-.139-1.149-.417-1.524a1.31 1.31 0 00-1.119-.563c-.464 0-.834.186-1.107.557-.274.367-.41.918-.41 1.653zm10.969-3.235V47h-1.424v-5.191h-1.793l-.117 2.209c-.075 1.062-.28 1.826-.616 2.29-.332.462-.841.692-1.529.692h-.439l-.006-1.184.293-.029c.312-.043.539-.232.679-.568.145-.34.237-.957.276-1.852l.117-2.707h4.559zm1.248 3.112c0-.622.123-1.18.369-1.676.246-.5.592-.883 1.037-1.149.445-.27.957-.404 1.535-.404.855 0 1.549.275 2.08.826.535.55.824 1.281.867 2.191l.006.334c0 .626-.121 1.184-.363 1.676a2.638 2.638 0 01-1.031 1.143c-.446.27-.961.404-1.547.404-.895 0-1.612-.297-2.151-.89-.535-.598-.802-1.393-.802-2.385v-.07zm1.423.123c0 .652.135 1.164.405 1.535.269.367.644.55 1.125.55.48 0 .853-.187 1.119-.562.269-.375.404-.924.404-1.646 0-.641-.139-1.149-.416-1.524a1.31 1.31 0 00-1.119-.563c-.465 0-.834.186-1.107.557-.274.367-.411.918-.411 1.653zm9.897-2.086h-2.754V47h-1.418v-6.34h4.172v1.149zm4.764-1.149h1.418V47h-1.418v-4.23L161.492 47h-1.418v-6.34h1.418v4.23l2.485-4.23zm6.89 0h1.418V47h-1.418v-4.23L168.383 47h-1.418v-6.34h1.418v4.23l2.484-4.23z" fill="#788891" />
    <path d="M32.067 13.867c1.128 0 2.081.727 2.44 1.733h8.986a2.596 2.596 0 012.44-1.733c1.434 0 2.6 1.166 2.6 2.6 0 1.433-1.166 2.6-2.6 2.6a2.597 2.597 0 01-2.44-1.734h-8.987a2.597 2.597 0 01-2.44 1.733 2.603 2.603 0 01-2.6-2.6c0-1.433 1.167-2.6 2.6-2.6zm13.866 3.466a.868.868 0 000-1.733.867.867 0 000 1.733zm-13.866 0a.868.868 0 10-.002-1.735.868.868 0 00.002 1.735z" fill="#00B2FF" />
    <path d="M25.133 19.226v-5.36c0-.23.091-.45.254-.612l3.467-3.467a.864.864 0 01.613-.254h2.76a2.596 2.596 0 012.44-1.733c1.433 0 2.6 1.166 2.6 2.6 0 1.433-1.167 2.6-2.6 2.6a2.596 2.596 0 01-2.44-1.733h-2.402l-2.958 2.958v5a2.596 2.596 0 011.733 2.441c0 1.434-1.167 2.6-2.6 2.6a2.603 2.603 0 01-2.6-2.6c0-1.128.727-2.081 1.733-2.44zm9.534-7.96a.868.868 0 10-.002-1.735.868.868 0 00.002 1.736zM26 22.534a.867.867 0 10-.002-1.735.867.867 0 00.002 1.735zm-16.467-.001c.4 0 .775.098 1.114.26l1.486-1.485V13c0-.23.091-.45.254-.613l8.674-8.673A2.556 2.556 0 0120.8 2.6c0-1.433 1.166-2.6 2.6-2.6C24.834 0 26 1.167 26 2.6s-1.166 2.6-2.6 2.6c-.4 0-.775-.098-1.114-.261l-8.42 8.42v8.307c0 .23-.09.451-.253.613l-1.74 1.74c.162.34.26.714.26 1.114 0 1.433-1.166 2.6-2.6 2.6a2.603 2.603 0 01-2.6-2.6c0-1.433 1.167-2.6 2.6-2.6zM23.4 3.467a.868.868 0 000-1.734.868.868 0 000 1.734zM9.533 26a.868.868 0 10-.001-1.735A.868.868 0 009.533 26zm-7.8-13.707V8.667c0-.231.091-.451.254-.613l6.067-6.067a.864.864 0 01.613-.254h4.492A2.597 2.597 0 0115.6 0c1.433 0 2.6 1.167 2.6 2.6s-1.167 2.6-2.6 2.6a2.597 2.597 0 01-2.44-1.733H9.024L3.467 9.025v3.268a2.596 2.596 0 011.733 2.44c0 1.433-1.167 2.6-2.6 2.6a2.603 2.603 0 01-2.6-2.6c0-1.128.727-2.082 1.733-2.44zM15.6 3.467a.867.867 0 10-.002-1.735.867.867 0 00.002 1.735zM2.6 15.6a.867.867 0 10-.002-1.735A.867.867 0 002.6 15.6zm11.266 31.36V34.507a2.597 2.597 0 01-1.733-2.44c0-1.434 1.167-2.6 2.6-2.6 1.129 0 2.082.726 2.44 1.733h8.986a2.597 2.597 0 012.441-1.734c1.128 0 2.082.727 2.44 1.733h5.001l3.22-3.22A2.557 2.557 0 0139 26.867c0-1.433 1.166-2.6 2.6-2.6 1.433 0 2.6 1.167 2.6 2.6 0 1.434-1.167 2.6-2.6 2.6-.4 0-.775-.098-1.114-.26l-3.473 3.473a.864.864 0 01-.613.254h-5.36a2.597 2.597 0 01-2.44 1.733 2.597 2.597 0 01-2.44-1.733h-8.987a2.598 2.598 0 01-1.574 1.574V46.96a2.596 2.596 0 011.733 2.44c0 1.434-1.166 2.6-2.6 2.6a2.603 2.603 0 01-2.6-2.6c0-1.128.728-2.082 1.734-2.44zM41.6 27.732a.867.867 0 10-.002-1.735.867.867 0 00.002 1.735zm-13 5.2a.868.868 0 10-.002-1.735.868.868 0 00.002 1.735zM14.733 50.266a.868.868 0 000-1.733.868.868 0 000 1.733zm0-17.333a.868.868 0 000-1.733.868.868 0 000 1.733z" fill="#00B2FF" />
    <path d="M18.2 17.492v-2.759c0-.23.091-.45.254-.613L28.86 3.714A2.556 2.556 0 0128.6 2.6c0-1.433 1.166-2.6 2.6-2.6 1.128 0 2.082.727 2.44 1.733h3.627c.478 0 .866.388.866.867v2.241l3.22 3.22a2.556 2.556 0 011.114-.261c1.433 0 2.6 1.166 2.6 2.6 0 1.433-1.167 2.6-2.6 2.6a2.603 2.603 0 01-2.6-2.6c0-.4.098-.775.26-1.114l-3.473-3.473A.863.863 0 0136.4 5.2V3.467h-2.76A2.596 2.596 0 0131.2 5.2c-.4 0-.775-.098-1.114-.261L19.933 15.092v2.4a2.596 2.596 0 011.734 2.441c0 1.433-1.167 2.6-2.6 2.6a2.603 2.603 0 01-2.6-2.6c0-1.128.727-2.082 1.733-2.44zm24.267-6.226a.868.868 0 10-.002-1.735.868.868 0 00.002 1.736zM31.2 3.467a.868.868 0 000-1.733.868.868 0 000 1.734zM19.067 20.8a.868.868 0 10-.002-1.735.868.868 0 00.002 1.735z" fill="#00B2FF" />
    <path d="M20.8 24.266c1.128 0 2.082.727 2.44 1.734h10.201l4.946-4.946A.864.864 0 0139 20.8h9.175l2.092-2.092v-7.083L43.58 4.94c-.338.163-.713.26-1.113.26a2.603 2.603 0 01-2.6-2.599c0-1.433 1.166-2.6 2.6-2.6 1.433 0 2.6 1.167 2.6 2.6 0 .4-.098.775-.261 1.114l6.94 6.94a.863.863 0 01.254.613v7.8c0 .23-.091.45-.254.612l-2.6 2.6a.864.864 0 01-.613.254H39.36l-4.946 4.946a.864.864 0 01-.613.254H23.24a2.596 2.596 0 01-2.44 1.733 2.603 2.603 0 01-2.6-2.6c0-1.433 1.166-2.6 2.6-2.6zM42.467 1.733a.868.868 0 10.001 1.735.868.868 0 00-.001-1.735zm-21.667 26a.868.868 0 000-1.733.868.868 0 000 1.733zM2.6 20.8c.4 0 .775.098 1.114.26l3.22-3.219v-5A2.596 2.596 0 015.2 10.4c0-1.434 1.167-2.6 2.6-2.6s2.6 1.166 2.6 2.6a2.596 2.596 0 01-1.733 2.44v5.36c0 .23-.091.45-.254.613l-3.474 3.473c.163.339.261.713.261 1.114a2.597 2.597 0 01-1.733 2.44v.668l6.679 6.679a.863.863 0 01.254.613v1.026a2.596 2.596 0 011.733 2.44 2.596 2.596 0 01-1.733 2.44v2.054a2.596 2.596 0 011.733 2.44c0 1.434-1.166 2.6-2.6 2.6a2.603 2.603 0 01-2.6-2.6c0-1.128.727-2.082 1.734-2.44v-2.053a2.596 2.596 0 01-1.734-2.44c0-1.13.727-2.083 1.734-2.441v-.668l-6.68-6.679a.863.863 0 01-.254-.613V25.84A2.597 2.597 0 010 23.4c0-1.434 1.167-2.6 2.6-2.6zm5.2-9.534a.867.867 0 10-.002-1.734.867.867 0 00.002 1.735zm1.733 33.8a.868.868 0 000-1.733.867.867 0 000 1.733zm0-6.933a.868.868 0 000-1.733.867.867 0 000 1.733zM2.6 24.266a.867.867 0 10-.002-1.735.867.867 0 00.002 1.735z" fill="#00B2FF" />
  </symbol>

  <symbol viewBox="0 0 216 52" id="footer-logo">
    <path d="M76.9355 24.3369C76.9355 23.6126 76.7484 23.0674 76.374 22.7012C76.0078 22.3268 75.3364 21.9403 74.3599 21.5415C72.5776 20.866 71.2959 20.0767 70.5146 19.1733C69.7334 18.2619 69.3428 17.1877 69.3428 15.9507C69.3428 14.4533 69.8717 13.2529 70.9297 12.3496C71.9958 11.4382 73.3467 10.9824 74.9824 10.9824C76.0729 10.9824 77.0454 11.2144 77.8999 11.6782C78.7544 12.134 79.4095 12.7809 79.8652 13.6191C80.3291 14.4574 80.561 15.4095 80.561 16.4756H76.9844C76.9844 15.6455 76.8053 15.0148 76.4473 14.5835C76.0973 14.144 75.5887 13.9243 74.9214 13.9243C74.2948 13.9243 73.8065 14.1115 73.4565 14.4858C73.1066 14.8521 72.9316 15.3485 72.9316 15.9751C72.9316 16.4634 73.127 16.9069 73.5176 17.3057C73.9082 17.6963 74.5999 18.1032 75.5928 18.5264C77.3262 19.153 78.5835 19.922 79.3647 20.8335C80.1541 21.745 80.5488 22.9046 80.5488 24.3125C80.5488 25.8587 80.0565 27.0672 79.0718 27.938C78.0871 28.8088 76.7484 29.2441 75.0557 29.2441C73.9082 29.2441 72.8625 29.0081 71.9185 28.5361C70.9744 28.0641 70.2339 27.3887 69.6968 26.5098C69.1678 25.6309 68.9033 24.5933 68.9033 23.397H72.5044C72.5044 24.4224 72.7038 25.167 73.1025 25.6309C73.5013 26.0947 74.1523 26.3267 75.0557 26.3267C76.3089 26.3267 76.9355 25.6634 76.9355 24.3369ZM88.0928 29.2441C86.3187 29.2441 84.9352 28.7152 83.9424 27.6572C82.9495 26.5993 82.4531 25.0856 82.4531 23.1162V22.0664C82.4531 19.9831 82.9089 18.3758 83.8203 17.2446C84.7318 16.1134 86.0379 15.5479 87.7388 15.5479C89.3989 15.5479 90.6481 16.0809 91.4863 17.147C92.3245 18.2049 92.7518 19.7756 92.7681 21.8589V23.5557H85.8955C85.9443 24.5322 86.16 25.2484 86.5425 25.7041C86.925 26.1517 87.515 26.3755 88.3125 26.3755C89.4681 26.3755 90.4325 25.9808 91.2056 25.1914L92.5605 27.2788C92.1374 27.8647 91.5229 28.3408 90.7173 28.707C89.9116 29.0651 89.0368 29.2441 88.0928 29.2441ZM85.9199 21.1387H89.3745V20.8213C89.3582 20.0319 89.228 19.4338 88.9839 19.0269C88.7397 18.62 88.3166 18.4165 87.7144 18.4165C87.1121 18.4165 86.6727 18.6322 86.396 19.0635C86.1274 19.4948 85.9688 20.1865 85.9199 21.1387ZM101.24 19.1245L100.092 19.0269C99.1483 19.0269 98.5094 19.4419 98.1758 20.272V29H94.709V15.792H97.9683L98.0659 17.2202C98.6112 16.1053 99.3639 15.5479 100.324 15.5479C100.715 15.5479 101.032 15.6007 101.276 15.7065L101.24 19.1245ZM107.575 24.1172L109.248 15.792H112.849L109.223 29H105.927L102.29 15.792H105.903L107.575 24.1172ZM118.098 29H114.631V15.792H118.098V29ZM114.472 12.374C114.472 11.8369 114.643 11.3975 114.985 11.0557C115.327 10.7139 115.782 10.543 116.352 10.543C116.922 10.543 117.377 10.7139 117.719 11.0557C118.061 11.3975 118.232 11.8369 118.232 12.374C118.232 12.903 118.061 13.3424 117.719 13.6924C117.386 14.0423 116.93 14.2173 116.352 14.2173C115.774 14.2173 115.314 14.0423 114.973 13.6924C114.639 13.3424 114.472 12.903 114.472 12.374ZM125.544 26.3755C126.545 26.3755 127.054 25.7244 127.07 24.4224H130.317C130.301 25.8628 129.857 27.0265 128.986 27.9136C128.116 28.8006 126.993 29.2441 125.617 29.2441C123.916 29.2441 122.618 28.7152 121.723 27.6572C120.828 26.5993 120.372 25.0409 120.356 22.9819V21.9321C120.356 19.8569 120.795 18.2741 121.674 17.1836C122.561 16.0931 123.868 15.5479 125.593 15.5479C127.049 15.5479 128.197 15.9995 129.035 16.9028C129.873 17.798 130.301 19.0716 130.317 20.7236H127.07C127.062 19.9831 126.94 19.4134 126.704 19.0146C126.468 18.6159 126.077 18.4165 125.532 18.4165C124.93 18.4165 124.498 18.6322 124.238 19.0635C123.977 19.4867 123.839 20.3127 123.823 21.5415V22.8843C123.823 23.9585 123.876 24.7113 123.981 25.1426C124.087 25.5658 124.262 25.8791 124.506 26.0825C124.75 26.2778 125.096 26.3755 125.544 26.3755ZM137.604 29.2441C135.83 29.2441 134.447 28.7152 133.454 27.6572C132.461 26.5993 131.965 25.0856 131.965 23.1162V22.0664C131.965 19.9831 132.421 18.3758 133.332 17.2446C134.243 16.1134 135.55 15.5479 137.25 15.5479C138.911 15.5479 140.16 16.0809 140.998 17.147C141.836 18.2049 142.264 19.7756 142.28 21.8589V23.5557H135.407C135.456 24.5322 135.672 25.2484 136.054 25.7041C136.437 26.1517 137.027 26.3755 137.824 26.3755C138.98 26.3755 139.944 25.9808 140.717 25.1914L142.072 27.2788C141.649 27.8647 141.035 28.3408 140.229 28.707C139.423 29.0651 138.549 29.2441 137.604 29.2441ZM135.432 21.1387H138.886V20.8213C138.87 20.0319 138.74 19.4338 138.496 19.0269C138.251 18.62 137.828 18.4165 137.226 18.4165C136.624 18.4165 136.184 18.6322 135.908 19.0635C135.639 19.4948 135.48 20.1865 135.432 21.1387ZM150.166 29V11.2266H154.865C156.94 11.2266 158.592 11.8857 159.821 13.2041C161.058 14.5225 161.689 16.3291 161.713 18.624V21.5049C161.713 23.8405 161.095 25.6756 159.858 27.0103C158.629 28.3368 156.932 29 154.768 29H150.166ZM153.754 14.2173V26.0215H154.829C156.025 26.0215 156.867 25.7082 157.355 25.0815C157.844 24.4468 158.1 23.3563 158.125 21.8101V18.7217C158.125 17.0615 157.893 15.9059 157.429 15.2549C156.965 14.5957 156.175 14.2498 155.061 14.2173H153.754ZM169.465 29.2441C167.691 29.2441 166.307 28.7152 165.314 27.6572C164.322 26.5993 163.825 25.0856 163.825 23.1162V22.0664C163.825 19.9831 164.281 18.3758 165.192 17.2446C166.104 16.1134 167.41 15.5479 169.111 15.5479C170.771 15.5479 172.02 16.0809 172.858 17.147C173.697 18.2049 174.124 19.7756 174.14 21.8589V23.5557H167.268C167.316 24.5322 167.532 25.2484 167.915 25.7041C168.297 26.1517 168.887 26.3755 169.685 26.3755C170.84 26.3755 171.805 25.9808 172.578 25.1914L173.933 27.2788C173.509 27.8647 172.895 28.3408 172.089 28.707C171.284 29.0651 170.409 29.2441 169.465 29.2441ZM167.292 21.1387H170.747V20.8213C170.73 20.0319 170.6 19.4338 170.356 19.0269C170.112 18.62 169.689 18.4165 169.086 18.4165C168.484 18.4165 168.045 18.6322 167.768 19.0635C167.5 19.4948 167.341 20.1865 167.292 21.1387ZM180.256 24.1172L181.928 15.792H185.529L181.904 29H178.608L174.97 15.792H178.583L180.256 24.1172ZM190.778 29H187.312V15.792H190.778V29ZM187.153 12.374C187.153 11.8369 187.324 11.3975 187.666 11.0557C188.007 10.7139 188.463 10.543 189.033 10.543C189.602 10.543 190.058 10.7139 190.4 11.0557C190.742 11.3975 190.913 11.8369 190.913 12.374C190.913 12.903 190.742 13.3424 190.4 13.6924C190.066 14.0423 189.611 14.2173 189.033 14.2173C188.455 14.2173 187.995 14.0423 187.653 13.6924C187.32 13.3424 187.153 12.903 187.153 12.374ZM198.225 26.3755C199.226 26.3755 199.734 25.7244 199.75 24.4224H202.998C202.981 25.8628 202.538 27.0265 201.667 27.9136C200.796 28.8006 199.673 29.2441 198.298 29.2441C196.597 29.2441 195.299 28.7152 194.404 27.6572C193.509 26.5993 193.053 25.0409 193.037 22.9819V21.9321C193.037 19.8569 193.476 18.2741 194.355 17.1836C195.242 16.0931 196.548 15.5479 198.273 15.5479C199.73 15.5479 200.878 15.9995 201.716 16.9028C202.554 17.798 202.981 19.0716 202.998 20.7236H199.75C199.742 19.9831 199.62 19.4134 199.384 19.0146C199.148 18.6159 198.758 18.4165 198.212 18.4165C197.61 18.4165 197.179 18.6322 196.918 19.0635C196.658 19.4867 196.52 20.3127 196.503 21.5415V22.8843C196.503 23.9585 196.556 24.7113 196.662 25.1426C196.768 25.5658 196.943 25.8791 197.187 26.0825C197.431 26.2778 197.777 26.3755 198.225 26.3755ZM210.285 29.2441C208.511 29.2441 207.128 28.7152 206.135 27.6572C205.142 26.5993 204.646 25.0856 204.646 23.1162V22.0664C204.646 19.9831 205.101 18.3758 206.013 17.2446C206.924 16.1134 208.23 15.5479 209.931 15.5479C211.591 15.5479 212.84 16.0809 213.679 17.147C214.517 18.2049 214.944 19.7756 214.96 21.8589V23.5557H208.088C208.137 24.5322 208.352 25.2484 208.735 25.7041C209.117 26.1517 209.707 26.3755 210.505 26.3755C211.66 26.3755 212.625 25.9808 213.398 25.1914L214.753 27.2788C214.33 27.8647 213.715 28.3408 212.91 28.707C212.104 29.0651 211.229 29.2441 210.285 29.2441ZM208.112 21.1387H211.567V20.8213C211.551 20.0319 211.42 19.4338 211.176 19.0269C210.932 18.62 210.509 18.4165 209.907 18.4165C209.305 18.4165 208.865 18.6322 208.588 19.0635C208.32 19.4948 208.161 20.1865 208.112 21.1387Z" fill="#203C42" />
    <path d="M70.9473 44.9609L72.2363 40.6602H73.7539L71.2344 47.9609C70.8477 49.0273 70.1914 49.5605 69.2656 49.5605C69.0586 49.5605 68.8301 49.5254 68.5801 49.4551V48.3535L68.8496 48.3711C69.209 48.3711 69.4785 48.3047 69.6582 48.1719C69.8418 48.043 69.9863 47.8242 70.0918 47.5156L70.2969 46.9707L68.0703 40.6602H69.6055L70.9473 44.9609ZM78.3418 45.248L80.2168 40.6602H81.998V47H80.5742V42.8047L78.8281 47H77.8613L76.1094 42.7812V47H74.6855V40.6602H76.4785L78.3418 45.248ZM88.9707 47H87.5469V44.4395H85.0801V47H83.6562V40.6602H85.0801V43.3027H87.5469V40.6602H88.9707V47ZM92.0234 42.6758H93.418C93.9375 42.6758 94.3906 42.7656 94.7773 42.9453C95.1641 43.125 95.457 43.377 95.6562 43.7012C95.8594 44.0254 95.9609 44.4023 95.9609 44.832C95.9609 45.4844 95.7305 46.0078 95.2695 46.4023C94.8086 46.7969 94.1953 46.9961 93.4297 47H90.5996V40.6602H92.0234V42.6758ZM98.4395 47H97.0156V40.6602H98.4395V47ZM92.0234 43.8184V45.8633H93.4121C93.7598 45.8633 94.0332 45.7773 94.2324 45.6055C94.4355 45.4297 94.5371 45.1816 94.5371 44.8613C94.5371 44.541 94.4375 44.2891 94.2383 44.1055C94.043 43.918 93.7773 43.8223 93.4414 43.8184H92.0234ZM102.939 47.1172C102.037 47.1172 101.305 46.834 100.742 46.2676C100.184 45.6973 99.9043 44.9395 99.9043 43.9941V43.8184C99.9043 43.1855 100.025 42.6211 100.268 42.125C100.514 41.625 100.857 41.2363 101.299 40.959C101.74 40.6816 102.232 40.543 102.775 40.543C103.639 40.543 104.305 40.8184 104.773 41.3691C105.246 41.9199 105.482 42.6992 105.482 43.707V44.2812H101.34C101.383 44.8047 101.557 45.2188 101.861 45.5234C102.17 45.8281 102.557 45.9805 103.021 45.9805C103.674 45.9805 104.205 45.7168 104.615 45.1895L105.383 45.9219C105.129 46.3008 104.789 46.5957 104.363 46.8066C103.941 47.0137 103.467 47.1172 102.939 47.1172ZM102.77 41.6855C102.379 41.6855 102.062 41.8223 101.82 42.0957C101.582 42.3691 101.43 42.75 101.363 43.2383H104.076V43.1328C104.045 42.6562 103.918 42.2969 103.695 42.0547C103.473 41.8086 103.164 41.6855 102.77 41.6855ZM114.57 41.791H112.514V47H111.09V41.791H109.057V40.6602H114.57V41.791ZM117.939 47.1172C117.037 47.1172 116.305 46.834 115.742 46.2676C115.184 45.6973 114.904 44.9395 114.904 43.9941V43.8184C114.904 43.1855 115.025 42.6211 115.268 42.125C115.514 41.625 115.857 41.2363 116.299 40.959C116.74 40.6816 117.232 40.543 117.775 40.543C118.639 40.543 119.305 40.8184 119.773 41.3691C120.246 41.9199 120.482 42.6992 120.482 43.707V44.2812H116.34C116.383 44.8047 116.557 45.2188 116.861 45.5234C117.17 45.8281 117.557 45.9805 118.021 45.9805C118.674 45.9805 119.205 45.7168 119.615 45.1895L120.383 45.9219C120.129 46.3008 119.789 46.5957 119.363 46.8066C118.941 47.0137 118.467 47.1172 117.939 47.1172ZM117.77 41.6855C117.379 41.6855 117.062 41.8223 116.82 42.0957C116.582 42.3691 116.43 42.75 116.363 43.2383H119.076V43.1328C119.045 42.6562 118.918 42.2969 118.695 42.0547C118.473 41.8086 118.164 41.6855 117.77 41.6855ZM123.869 42.7461L125.076 40.6602H126.658L124.719 43.7832L126.723 47H125.152L123.887 44.832L122.627 47H121.045L123.049 43.7832L121.115 40.6602H122.686L123.869 42.7461ZM132.998 47H131.574V44.4395H129.107V47H127.684V40.6602H129.107V43.3027H131.574V40.6602H132.998V47ZM134.252 43.7715C134.252 43.1504 134.375 42.5918 134.621 42.0957C134.867 41.5957 135.213 41.2129 135.658 40.9473C136.104 40.6777 136.615 40.543 137.193 40.543C138.049 40.543 138.742 40.8184 139.273 41.3691C139.809 41.9199 140.098 42.6504 140.141 43.5605L140.146 43.8945C140.146 44.5195 140.025 45.0781 139.783 45.5703C139.545 46.0625 139.201 46.4434 138.752 46.7129C138.307 46.9824 137.791 47.1172 137.205 47.1172C136.311 47.1172 135.594 46.8203 135.055 46.2266C134.52 45.6289 134.252 44.834 134.252 43.8418V43.7715ZM135.676 43.8945C135.676 44.5469 135.811 45.0586 136.08 45.4297C136.35 45.7969 136.725 45.9805 137.205 45.9805C137.686 45.9805 138.059 45.793 138.324 45.418C138.594 45.043 138.729 44.4941 138.729 43.7715C138.729 43.1309 138.59 42.623 138.312 42.248C138.039 41.873 137.666 41.6855 137.193 41.6855C136.729 41.6855 136.359 41.8711 136.086 42.2422C135.812 42.6094 135.676 43.1602 135.676 43.8945ZM146.645 40.6602V47H145.221V41.8086H143.428L143.311 44.0176C143.236 45.0801 143.031 45.8438 142.695 46.3086C142.363 46.7695 141.854 47 141.166 47H140.727L140.721 45.8164L141.014 45.7871C141.326 45.7441 141.553 45.5547 141.693 45.2188C141.838 44.8789 141.93 44.2617 141.969 43.3672L142.086 40.6602H146.645ZM147.893 43.7715C147.893 43.1504 148.016 42.5918 148.262 42.0957C148.508 41.5957 148.854 41.2129 149.299 40.9473C149.744 40.6777 150.256 40.543 150.834 40.543C151.689 40.543 152.383 40.8184 152.914 41.3691C153.449 41.9199 153.738 42.6504 153.781 43.5605L153.787 43.8945C153.787 44.5195 153.666 45.0781 153.424 45.5703C153.186 46.0625 152.842 46.4434 152.393 46.7129C151.947 46.9824 151.432 47.1172 150.846 47.1172C149.951 47.1172 149.234 46.8203 148.695 46.2266C148.16 45.6289 147.893 44.834 147.893 43.8418V43.7715ZM149.316 43.8945C149.316 44.5469 149.451 45.0586 149.721 45.4297C149.99 45.7969 150.365 45.9805 150.846 45.9805C151.326 45.9805 151.699 45.793 151.965 45.418C152.234 45.043 152.369 44.4941 152.369 43.7715C152.369 43.1309 152.23 42.623 151.953 42.248C151.68 41.873 151.307 41.6855 150.834 41.6855C150.369 41.6855 150 41.8711 149.727 42.2422C149.453 42.6094 149.316 43.1602 149.316 43.8945ZM159.213 41.8086H156.459V47H155.041V40.6602H159.213V41.8086ZM163.977 40.6602H165.395V47H163.977V42.7695L161.492 47H160.074V40.6602H161.492V44.8906L163.977 40.6602ZM170.867 40.6602H172.285V47H170.867V42.7695L168.383 47H166.965V40.6602H168.383V44.8906L170.867 40.6602Z" fill="#788891" />
    <path d="M32.0665 13.8665C33.1949 13.8665 34.1483 14.5936 34.5071 15.5998H43.4927C43.8515 14.5936 44.8048 13.8665 45.9332 13.8665C47.3667 13.8665 48.5332 15.033 48.5332 16.4664C48.5332 17.8999 47.3667 19.0664 45.9332 19.0664C44.8048 19.0664 43.8515 18.3392 43.4927 17.3331H34.5062C34.1474 18.3392 33.1941 19.0664 32.0657 19.0664C30.6322 19.0664 29.4657 17.8999 29.4657 16.4664C29.4657 15.033 30.6331 13.8665 32.0665 13.8665ZM45.9332 17.3331C46.4107 17.3331 46.7999 16.9448 46.7999 16.4664C46.7999 15.988 46.4107 15.5998 45.9332 15.5998C45.4557 15.5998 45.0665 15.988 45.0665 16.4664C45.0665 16.9448 45.4557 17.3331 45.9332 17.3331ZM32.0665 17.3331C32.5441 17.3331 32.9332 16.9448 32.9332 16.4664C32.9332 15.988 32.5441 15.5998 32.0665 15.5998C31.589 15.5998 31.1999 15.988 31.1999 16.4664C31.1999 16.9448 31.589 17.3331 32.0665 17.3331Z" fill="#00B2FF" />
    <path d="M25.1333 19.2259V13.8665C25.1333 13.636 25.2243 13.4158 25.3872 13.2538L28.8539 9.78716C29.0159 9.62423 29.2369 9.53323 29.4666 9.53323H32.2261C32.5849 8.52705 33.5382 7.79993 34.6666 7.79993C36.1001 7.79993 37.2666 8.96644 37.2666 10.3999C37.2666 11.8333 36.1001 12.9998 34.6666 12.9998C33.5382 12.9998 32.5849 12.2727 32.2261 11.2665H29.8254L26.8666 14.2253V19.2259C27.8728 19.5847 28.5999 20.538 28.5999 21.6664C28.5999 23.0998 27.4334 24.2663 25.9999 24.2663C24.5665 24.2663 23.3999 23.0998 23.3999 21.6664C23.3999 20.538 24.1271 19.5847 25.1333 19.2259ZM34.6666 11.2665C35.1441 11.2665 35.5333 10.8783 35.5333 10.3999C35.5333 9.92149 35.1441 9.53323 34.6666 9.53323C34.1891 9.53323 33.7999 9.92149 33.7999 10.3999C33.7999 10.8783 34.1891 11.2665 34.6666 11.2665ZM25.9999 22.533C26.4775 22.533 26.8666 22.1448 26.8666 21.6664C26.8666 21.188 26.4775 20.7997 25.9999 20.7997C25.5224 20.7997 25.1333 21.188 25.1333 21.6664C25.1333 22.1448 25.5224 22.533 25.9999 22.533Z" fill="#00B2FF" />
    <path d="M9.53333 22.533C9.93373 22.533 10.3081 22.6309 10.647 22.7938L12.1333 21.3075V12.9998C12.1333 12.7693 12.2243 12.5491 12.3873 12.3871L21.0609 3.7136C20.8979 3.37474 20.8 3.00035 20.8 2.59996C20.8 1.16651 21.9665 0 23.4 0C24.8335 0 26 1.16651 26 2.59996C26 4.0334 24.8335 5.19991 23.4 5.19991C22.9996 5.19991 22.6252 5.10198 22.2863 4.93905L13.8667 13.3586V21.6663C13.8667 21.8968 13.7757 22.117 13.6127 22.279L11.8725 24.0193C12.0354 24.3581 12.1333 24.7325 12.1333 25.1329C12.1333 26.5664 10.9668 27.7329 9.53333 27.7329C8.09986 27.7329 6.93333 26.5664 6.93333 25.1329C6.93333 23.6995 8.09986 22.533 9.53333 22.533ZM23.4 3.46661C23.8775 3.46661 24.2667 3.07835 24.2667 2.59996C24.2667 2.12156 23.8775 1.7333 23.4 1.7333C22.9225 1.7333 22.5333 2.12156 22.5333 2.59996C22.5333 3.07835 22.9225 3.46661 23.4 3.46661ZM9.53333 25.9996C10.0109 25.9996 10.4 25.6113 10.4 25.1329C10.4 24.6545 10.0109 24.2663 9.53333 24.2663C9.0558 24.2663 8.66667 24.6545 8.66667 25.1329C8.66667 25.6113 9.0558 25.9996 9.53333 25.9996Z" fill="#00B2FF" />
    <path d="M1.73353 12.2926V8.66652C1.73353 8.43599 1.82453 8.21586 1.98746 8.0538L8.05413 1.98723C8.21619 1.8243 8.43719 1.7333 8.66686 1.7333H13.1597C13.5185 0.727121 14.4718 0 15.6002 0C17.0337 0 18.2002 1.16651 18.2002 2.59996C18.2002 4.0334 17.0337 5.19991 15.6002 5.19991C14.4718 5.19991 13.5185 4.47279 13.1597 3.46661H9.02566L3.46686 9.02532V12.2926C4.47306 12.6514 5.2002 13.6047 5.2002 14.7331C5.2002 16.1665 4.03366 17.333 2.60019 17.333C1.16673 17.333 0.00019455 16.1665 0.00019455 14.7331C0.00019455 13.6047 0.727329 12.6514 1.73353 12.2926ZM15.6002 3.46661C16.0777 3.46661 16.4669 3.07835 16.4669 2.59996C16.4669 2.12156 16.0777 1.7333 15.6002 1.7333C15.1227 1.7333 14.7335 2.12156 14.7335 2.59996C14.7335 3.07835 15.1227 3.46661 15.6002 3.46661ZM2.60019 15.5997C3.07773 15.5997 3.46686 15.2115 3.46686 14.7331C3.46686 14.2547 3.07773 13.8664 2.60019 13.8664C2.12266 13.8664 1.73353 14.2547 1.73353 14.7331C1.73353 15.2115 2.12266 15.5997 2.60019 15.5997Z" fill="#00B2FF" />
    <path d="M13.866 46.9595V34.5066C12.8607 34.1478 12.1335 33.1945 12.1335 32.0661C12.1335 30.6327 13.3001 29.4661 14.7335 29.4661C15.8619 29.4661 16.8153 30.1933 17.1741 31.1995H26.1597C26.5185 30.1933 27.4718 29.4661 28.6002 29.4661C29.7286 29.4661 30.6819 30.1933 31.0407 31.1995H36.0414L39.2611 27.9798C39.0981 27.641 39.0002 27.2666 39.0002 26.8662C39.0002 25.4327 40.1667 24.2662 41.6002 24.2662C43.0337 24.2662 44.2002 25.4327 44.2002 26.8662C44.2002 28.2996 43.0337 29.4661 41.6002 29.4661C41.1998 29.4661 40.8254 29.3682 40.4865 29.2053L37.0129 32.6788C36.8509 32.8418 36.6299 32.9328 36.4002 32.9328H31.0407C30.6819 33.9389 29.7286 34.6661 28.6002 34.6661C27.4718 34.6661 26.5185 33.9389 26.1597 32.9328H17.1732C16.9115 33.6668 16.3334 34.2449 15.5993 34.5066V46.9595C16.6055 47.3183 17.3327 48.2716 17.3327 49.4C17.3327 50.8335 16.1661 52 14.7327 52C13.2992 52 12.1327 50.8335 12.1327 49.4C12.1327 48.2716 12.8598 47.3183 13.866 46.9595ZM41.6002 27.7328C42.0777 27.7328 42.4669 27.3446 42.4669 26.8662C42.4669 26.3878 42.0777 25.9995 41.6002 25.9995C41.1227 25.9995 40.7335 26.3878 40.7335 26.8662C40.7335 27.3446 41.1227 27.7328 41.6002 27.7328ZM28.6002 32.9328C29.0777 32.9328 29.4669 32.5445 29.4669 32.0661C29.4669 31.5877 29.0777 31.1995 28.6002 31.1995C28.1227 31.1995 27.7335 31.5877 27.7335 32.0661C27.7335 32.5445 28.1227 32.9328 28.6002 32.9328ZM14.7335 50.2658C15.2111 50.2658 15.6002 49.8775 15.6002 49.3991C15.6002 48.9208 15.2111 48.5325 14.7335 48.5325C14.256 48.5325 13.8669 48.9208 13.8669 49.3991C13.8669 49.8775 14.256 50.2658 14.7335 50.2658ZM14.7335 32.9328C15.2111 32.9328 15.6002 32.5445 15.6002 32.0661C15.6002 31.5877 15.2111 31.1995 14.7335 31.1995C14.256 31.1995 13.8669 31.5877 13.8669 32.0661C13.8669 32.5445 14.256 32.9328 14.7335 32.9328Z" fill="#00B2FF" />
    <path d="M18.2002 17.4925V14.7331C18.2002 14.5026 18.2912 14.2824 18.4542 14.1204L28.8611 3.7136C28.6982 3.37474 28.6002 3.00035 28.6002 2.59996C28.6002 1.16651 29.7668 0 31.2002 0C32.3286 0 33.282 0.727121 33.6408 1.7333H37.2669C37.7453 1.7333 38.1336 2.1207 38.1336 2.59996V4.84112L41.3532 8.06073C41.6921 7.8978 42.0665 7.79987 42.4669 7.79987C43.9004 7.79987 45.0669 8.96638 45.0669 10.3998C45.0669 11.8333 43.9004 12.9998 42.4669 12.9998C41.0334 12.9998 39.8669 11.8333 39.8669 10.3998C39.8669 9.99943 39.9648 9.62504 40.1278 9.28618L36.6542 5.81264C36.4912 5.65057 36.4002 5.43044 36.4002 5.19991V3.46661H33.6408C33.282 4.47279 32.3286 5.19991 31.2002 5.19991C30.7998 5.19991 30.4254 5.10198 30.0866 4.93905L19.9336 15.0919V17.4925C20.9398 17.8513 21.6669 18.8046 21.6669 19.933C21.6669 21.3664 20.5004 22.533 19.0669 22.533C17.6334 22.533 16.4669 21.3664 16.4669 19.933C16.4669 18.8046 17.194 17.8513 18.2002 17.4925ZM42.4669 11.2665C42.9444 11.2665 43.3336 10.8782 43.3336 10.3998C43.3336 9.92143 42.9444 9.53317 42.4669 9.53317C41.9894 9.53317 41.6002 9.92143 41.6002 10.3998C41.6002 10.8782 41.9894 11.2665 42.4669 11.2665ZM31.2002 3.46661C31.6778 3.46661 32.0669 3.07835 32.0669 2.59996C32.0669 2.12156 31.6778 1.7333 31.2002 1.7333C30.7227 1.7333 30.3336 2.12156 30.3336 2.59996C30.3336 3.07835 30.7227 3.46661 31.2002 3.46661ZM19.0669 20.7997C19.5444 20.7997 19.9336 20.4114 19.9336 19.933C19.9336 19.4546 19.5444 19.0663 19.0669 19.0663C18.5894 19.0663 18.2002 19.4546 18.2002 19.933C18.2002 20.4114 18.5894 20.7997 19.0669 20.7997Z" fill="#00B2FF" />
    <path d="M20.8 24.2663C21.9284 24.2663 22.8817 24.9934 23.2405 25.9996H33.4412L38.3873 21.0536C38.5493 20.8906 38.7703 20.7997 39 20.7997H48.1745L50.2667 18.7076V11.6253L43.5803 4.93905C43.2415 5.10198 42.8671 5.19991 42.4667 5.19991C41.0332 5.19991 39.8667 4.0334 39.8667 2.59996C39.8667 1.16651 41.0332 0 42.4667 0C43.9001 0 45.0667 1.16651 45.0667 2.59996C45.0667 3.00035 44.9687 3.37474 44.8058 3.7136L51.7461 10.6538C51.909 10.8158 52 11.0359 52 11.2665V19.0663C52 19.2969 51.909 19.517 51.7461 19.6791L49.1461 22.279C48.984 22.442 48.763 22.533 48.5333 22.533H39.3588L34.4127 27.4789C34.2507 27.6419 34.0297 27.7329 33.8 27.7329H23.2405C22.8817 28.7391 21.9284 29.4662 20.8 29.4662C19.3665 29.4662 18.2 28.2997 18.2 26.8662C18.2 25.4328 19.3665 24.2663 20.8 24.2663ZM42.4667 1.7333C41.9891 1.7333 41.6 2.12156 41.6 2.59996C41.6 3.07835 41.9891 3.46661 42.4667 3.46661C42.9442 3.46661 43.3333 3.07835 43.3333 2.59996C43.3333 2.12156 42.9442 1.7333 42.4667 1.7333ZM20.8 27.7329C21.2775 27.7329 21.6667 27.3446 21.6667 26.8662C21.6667 26.3878 21.2775 25.9996 20.8 25.9996C20.3225 25.9996 19.9333 26.3878 19.9333 26.8662C19.9333 27.3446 20.3225 27.7329 20.8 27.7329Z" fill="#00B2FF" />
    <path d="M2.59997 20.7997C3.00037 20.7997 3.37477 20.8976 3.71363 21.0606L6.9333 17.841V12.8404C5.9271 12.4816 5.19997 11.5283 5.19997 10.3999C5.19997 8.96644 6.3665 7.79993 7.79997 7.79993C9.23343 7.79993 10.4 8.96644 10.4 10.3999C10.4 11.5283 9.67283 12.4816 8.66663 12.8404V18.1998C8.66663 18.4303 8.57563 18.6504 8.4127 18.8125L4.9391 22.286C5.10204 22.6249 5.19997 22.9993 5.19997 23.3997C5.19997 24.528 4.47283 25.4814 3.46663 25.8402V26.5075L10.146 33.1868C10.309 33.3488 10.4 33.569 10.4 33.7995V34.8256C11.4062 35.1844 12.1333 36.1377 12.1333 37.2661C12.1333 38.3945 11.4062 39.3478 10.4 39.7066V41.7597C11.4062 42.1185 12.1333 43.0718 12.1333 44.2002C12.1333 45.6336 10.9668 46.8001 9.5333 46.8001C8.09983 46.8001 6.9333 45.6336 6.9333 44.2002C6.9333 43.0718 7.66043 42.1185 8.66663 41.7597V39.7066C7.66043 39.3478 6.9333 38.3945 6.9333 37.2661C6.9333 36.1377 7.66043 35.1844 8.66663 34.8256V34.1583L1.98723 27.479C1.8243 27.3169 1.7333 27.0968 1.7333 26.8663V25.8402C0.7271 25.4814 -3.24249e-05 24.528 -3.24249e-05 23.3997C-3.24249e-05 21.9662 1.1665 20.7997 2.59997 20.7997ZM7.79997 11.2665C8.2775 11.2665 8.66663 10.8783 8.66663 10.3999C8.66663 9.92149 8.2775 9.53323 7.79997 9.53323C7.32243 9.53323 6.9333 9.92149 6.9333 10.3999C6.9333 10.8783 7.32243 11.2665 7.79997 11.2665ZM9.5333 45.066C10.0108 45.066 10.4 44.6777 10.4 44.1993C10.4 43.7209 10.0108 43.3327 9.5333 43.3327C9.05577 43.3327 8.66663 43.7209 8.66663 44.1993C8.66663 44.6777 9.05577 45.066 9.5333 45.066ZM9.5333 38.1328C10.0108 38.1328 10.4 37.7445 10.4 37.2661C10.4 36.7877 10.0108 36.3995 9.5333 36.3995C9.05577 36.3995 8.66663 36.7877 8.66663 37.2661C8.66663 37.7445 9.05577 38.1328 9.5333 38.1328ZM2.59997 24.2663C3.0775 24.2663 3.46663 23.8781 3.46663 23.3997C3.46663 22.9213 3.0775 22.533 2.59997 22.533C2.12243 22.533 1.7333 22.9213 1.7333 23.3997C1.7333 23.8781 2.12243 24.2663 2.59997 24.2663Z" fill="#00B2FF" />
  </symbol>

  <symbol viewBox="0 0 27 26" id="ok">
    <path d="M13.851 10.957c1.016 0 1.806-.836 1.787-1.746.019-.91-.752-1.764-1.768-1.764-.978 0-1.787.78-1.787 1.746 0 .965.79 1.764 1.768 1.764z" />
    <path d="M13.701 0C6.441 0 .535 5.831.535 13c0 7.187 5.906 13 13.166 13 7.279 0 13.166-5.831 13.166-13C26.885 5.83 20.98 0 13.7 0zm.188 4.921c2.37 0 4.326 1.932 4.307 4.29 0 2.377-1.975 4.29-4.382 4.253-2.37-.037-4.27-1.95-4.27-4.271 0-2.359 1.938-4.272 4.345-4.272zm4.834 10.029c0 .037-.019.056-.019.093a1.213 1.213 0 01-.564.873c-.207.13-.433.26-.659.371a8.55 8.55 0 01-1.786.65c-.075.019-.075.019-.02.074l1.035 1.022 1.317 1.3c.62.613.451 1.634-.339 2.006-.131.074-.282.092-.432.13h-.245c-.019 0-.037 0-.037-.02-.301-.036-.546-.185-.771-.39l-2.276-2.246c-.057-.056-.057-.056-.113 0l-2.295 2.265c-.131.13-.263.223-.432.298-.113.055-.245.074-.358.092h-.244c-.038 0-.057-.018-.094-.018-.508-.093-.847-.372-.997-.854-.15-.483-.038-.91.32-1.263l.94-.929 1.392-1.374c.056-.056.056-.056-.019-.074-.019 0-.056-.019-.075-.019a8.182 8.182 0 01-2.351-.984c-.433-.279-.64-.687-.583-1.189.094-.928 1.147-1.43 1.937-.928.15.092.282.167.451.241a5.413 5.413 0 002.746.557c.47-.018.94-.111 1.411-.26.451-.148.846-.353 1.26-.575.677-.39 1.561-.075 1.825.65.037.11.056.204.075.315v.186z" />
  </symbol>

  <symbol viewBox="0 0 18 18" id="phone-call">
    <path d="M14.233 11.15c-.369-.383-.814-.588-1.286-.588-.468 0-.917.2-1.3.585l-1.203 1.196c-.099-.053-.198-.102-.293-.152a4.832 4.832 0 01-.377-.201c-1.126-.714-2.15-1.645-3.13-2.85-.476-.6-.796-1.105-1.028-1.618.312-.285.601-.581.883-.866l.32-.323c.798-.798.798-1.831 0-2.629l-1.04-1.037c-.117-.118-.24-.24-.353-.36A17.952 17.952 0 004.71 1.6c-.369-.365-.81-.559-1.274-.559-.464 0-.913.194-1.294.559l-.007.007L.84 2.91a2.778 2.778 0 00-.825 1.767c-.092 1.11.236 2.142.487 2.819.616 1.66 1.537 3.198 2.91 4.847a17.9 17.9 0 005.962 4.662c.875.414 2.043.904 3.348.987.08.004.163.008.24.008.878 0 1.617-.315 2.195-.942.004-.008.011-.012.015-.02.198-.239.426-.455.666-.687.163-.156.33-.319.494-.49.377-.391.575-.847.575-1.314 0-.471-.202-.924-.586-1.303l-2.089-2.094zm1.362 4c-.004 0-.004.005 0 0-.148.16-.3.305-.464.464a9.977 9.977 0 00-.734.76c-.384.41-.837.604-1.43.604-.058 0-.119 0-.176-.004-1.13-.072-2.18-.513-2.967-.889a16.898 16.898 0 01-5.616-4.391C2.911 10.132 2.043 8.689 1.47 7.139c-.354-.946-.483-1.683-.426-2.379.038-.444.21-.813.525-1.128l1.297-1.295c.187-.175.385-.27.579-.27.24 0 .433.144.555.266l.011.011c.233.217.453.44.685.68.118.122.24.243.362.369L6.095 4.43c.404.403.404.775 0 1.178-.11.11-.217.22-.327.326-.32.327-.624.63-.955.927-.007.008-.015.012-.019.02-.327.326-.266.645-.198.862l.012.034c.27.653.65 1.269 1.229 2.002l.003.004c1.05 1.291 2.158 2.298 3.379 3.07.156.098.316.178.468.254.137.068.266.133.377.201.015.008.03.02.045.027.13.064.251.095.377.095.316 0 .513-.198.578-.262l1.301-1.3c.13-.129.335-.285.575-.285.236 0 .43.149.548.278l.007.007 2.097 2.094c.391.387.391.786.003 1.189zM9.728 4.282a4.827 4.827 0 012.626 1.36 4.84 4.84 0 011.362 2.621.51.51 0 00.506.426c.03 0 .057-.004.087-.008a.513.513 0 00.422-.593 5.856 5.856 0 00-1.647-3.172 5.871 5.871 0 00-3.177-1.645.516.516 0 00-.593.418.507.507 0 00.414.593zm8.264 3.658a9.635 9.635 0 00-2.713-5.223 9.659 9.659 0 00-5.23-2.71.512.512 0 10-.168 1.011 8.65 8.65 0 014.676 2.42 8.601 8.601 0 012.423 4.67.51.51 0 00.506.425c.03 0 .057-.004.088-.008a.503.503 0 00.418-.585z" />
  </symbol>

  <symbol viewBox="0 0 29 35" id="stopwatch">
    <path d="M3.188 11.662L1.702 10.19a2.038 2.038 0 010-2.9c.807-.8 2.122-.8 2.929 0l1.587 1.572a14.58 14.58 0 015.52-2.311V4.51h-1.38a.687.687 0 01-.691-.683V2.051C9.667.92 10.596 0 11.738 0h5.524c1.142 0 2.071.92 2.071 2.05v1.778a.687.687 0 01-.69.684h-1.381V6.55a14.578 14.578 0 015.52 2.31l1.587-1.57c.807-.8 2.121-.8 2.93 0a2.04 2.04 0 010 2.9l-1.487 1.471A14.252 14.252 0 0129 20.644C29 28.56 22.495 35 14.5 35S0 28.56 0 20.645c0-3.277 1.128-6.442 3.188-8.983zm.467-3.405a.696.696 0 00-.977 0 .68.68 0 000 .967l1.427 1.412c.322-.327.659-.638 1.01-.934l-1.46-1.445zm14.297-6.206a.688.688 0 00-.69-.684h-5.524c-.38 0-.69.307-.69.684v1.094h6.904V2.05zM13.12 4.51v1.843a15.006 15.006 0 012.762 0V4.512H13.12zm13.203 3.746a.696.696 0 00-.977 0l-1.46 1.445c.351.296.688.607 1.01.934l1.427-1.412a.68.68 0 000-.967zM14.5 33.633c7.234 0 13.119-5.827 13.119-12.989 0-3.159-1.158-6.202-3.262-8.57A13.177 13.177 0 0014.5 7.656a13.18 13.18 0 00-7.936 2.645 13.19 13.19 0 00-1.921 1.771 12.898 12.898 0 00-3.262 8.572c0 7.161 5.885 12.988 13.119 12.988z" />
    <path d="M14.5 22.695a2.063 2.063 0 01-2.071-2.05c0-.892.577-1.651 1.38-1.934V13.81c0-.378.31-.684.691-.684.382 0 .69.306.69.684v4.902a2.056 2.056 0 011.382 1.934c0 1.13-.93 2.05-2.072 2.05zm0-2.734c-.38 0-.69.306-.69.684 0 .377.31.683.69.683.38 0 .69-.306.69-.683a.688.688 0 00-.69-.684z" />
    <path d="M7.145 13.433a.54.54 0 01.033-.037l.04-.037a10.417 10.417 0 014.353-2.55.682.682 0 11.391 1.311 9.028 9.028 0 00-3.298 1.78l.466.46c.27.268.27.7 0 .968a.692.692 0 01-.977 0l-.467-.462A8.758 8.758 0 005.55 19.96h.664c.382 0 .69.306.69.684a.686.686 0 01-.69.683H5.55a8.757 8.757 0 002.136 5.096l.467-.463a.696.696 0 01.977 0c.27.267.27.7 0 .967l-.467.462a8.941 8.941 0 005.147 2.115v-.657c0-.378.309-.684.69-.684.381 0 .69.306.69.684v.657a8.939 8.939 0 005.147-2.115l-.467-.462a.679.679 0 010-.967.696.696 0 01.977 0l.467.463a8.758 8.758 0 002.136-5.096h-.664a.687.687 0 01-.69-.683c0-.378.308-.684.69-.684h.664a8.758 8.758 0 00-2.136-5.095l-.467.462a.692.692 0 01-.977 0 .68.68 0 010-.967l.466-.461a9.024 9.024 0 00-3.298-1.78.682.682 0 01-.466-.85.692.692 0 01.857-.462 10.414 10.414 0 014.351 2.55.672.672 0 01.042.037l.033.037a10.132 10.132 0 013.002 7.213c0 2.718-1.066 5.277-3.002 7.211a.555.555 0 01-.033.037.38.38 0 01-.037.033 10.34 10.34 0 01-7.285 2.972c-2.746 0-5.33-1.055-7.284-2.971l-.038-.034c-.012-.011-.022-.024-.033-.036a10.132 10.132 0 01-3.002-7.212 10.13 10.13 0 013.002-7.212z" />
    <path d="M14.5 11.758a.687.687 0 01-.69-.684c0-.377.309-.683.69-.683.381 0 .69.306.69.683a.688.688 0 01-.69.684z" />
  </symbol>

  <symbol viewBox="0 0 35 35" id="tag">
    <path d="M11.07 8.585a.689.689 0 00-.483-.2.689.689 0 00-.483.2.69.69 0 00-.2.483.685.685 0 001.167.483.69.69 0 00.2-.483.689.689 0 00-.2-.483z" />
    <path d="M34.8 2.859l-.845-.847.845-.845A.684.684 0 0033.833.2l-.844.845-.833-.834a.683.683 0 00-.484-.2L20.102.003H20.1c-.913 0-1.772.356-2.418 1.002L11.908 6.78a.684.684 0 00.967.967l5.774-5.774A2.04 2.04 0 0120.1 1.37h.002l11.286.007.634.634-2.537 2.537a2.805 2.805 0 00-3.419.422 2.783 2.783 0 00-.82 1.98c0 .748.291 1.452.82 1.98a2.792 2.792 0 001.98.82c.717 0 1.434-.273 1.98-.82a2.806 2.806 0 00.425-3.415l2.537-2.537.645.646-.007 11.273a2.04 2.04 0 01-.601 1.451L16.344 33.033a2.04 2.04 0 01-1.452.601 2.04 2.04 0 01-1.452-.601L1.97 21.559a2.04 2.04 0 01-.602-1.452c0-.548.214-1.064.602-1.452l7.368-7.37a.684.684 0 00-.966-.966L1 17.689a3.399 3.399 0 00-1 2.417c0 .914.356 1.773 1.002 2.42L12.473 34a3.41 3.41 0 002.419 1 3.41 3.41 0 002.419-1l16.68-16.684a3.4 3.4 0 001.003-2.417L35 3.342a.683.683 0 00-.2-.483zm-5.74 5.106c-.271.27-.631.42-1.014.42s-.742-.15-1.013-.42a1.435 1.435 0 011.013-2.447c.139 0 .277.02.41.06l-.789.789a.684.684 0 00.967.967l.787-.787a1.434 1.434 0 01-.361 1.418z" />
    <path d="M29.2 13.764l-7.966-7.967a2.71 2.71 0 00-3.828 0L4.8 18.406a2.69 2.69 0 00-.793 1.914c0 .723.282 1.403.793 1.914l7.967 7.968c.511.51 1.19.793 1.914.793.723 0 1.402-.282 1.913-.793L29.2 17.592a2.69 2.69 0 00.793-1.913 2.69 2.69 0 00-.793-1.915zm-.966 2.862L15.627 29.235a1.33 1.33 0 01-.947.392 1.33 1.33 0 01-.947-.392l-7.967-7.968a1.33 1.33 0 01-.392-.947c0-.358.139-.695.392-.948L18.373 6.764c.261-.262.604-.392.947-.392.343 0 .686.13.947.392l7.967 7.967c.253.253.392.59.392.948 0 .357-.14.694-.392.947z" />
    <path d="M22.29 13.677a.684.684 0 00-.966-.967l-.394.394c-1.051-.65-2.4-.563-3.252.29a2.48 2.48 0 00-.716 1.9 2.876 2.876 0 00.853 1.892c.55.55.611 1.384.137 1.859-.475.474-1.309.413-1.859-.137s-.61-1.384-.136-1.859a.684.684 0 00-.967-.967c-.853.853-.94 2.202-.29 3.253l-.468.467a.684.684 0 00.968.967l.467-.467c.46.283.975.427 1.482.427.652 0 1.29-.238 1.77-.717 1.007-1.008.946-2.709-.137-3.792a1.512 1.512 0 01-.454-.991 1.13 1.13 0 01.317-.868c.474-.475 1.308-.413 1.858.137s.611 1.384.137 1.858a.684.684 0 00.966.967c.853-.852.94-2.201.29-3.252l.394-.394zm-6.918 11.335L11.86 21.5a.684.684 0 00-.967.967l3.511 3.512a.682.682 0 00.967 0 .684.684 0 000-.967zm-5.384-5.385a.688.688 0 00-.483-.2.69.69 0 00-.483.2.69.69 0 00-.2.484.684.684 0 00.683.683.688.688 0 00.684-.683.689.689 0 00-.2-.484z" />
  </symbol>

  <symbol viewBox="0 0 10 7" id="tick">
    <path d="M1 2.667L4.2 6 9 1" />
  </symbol>

  <symbol viewBox="0 0 27 26" id="vk">
    <path d="M19.475 15.127c-1.109-1.024-1.188-1.024-.238-2.206 1.188-1.497 2.773-3.388 1.347-3.388H17.97c-.475 0-.554.316-.713.71-.633 1.496-1.9 3.466-2.376 3.15-.475-.314-.237-1.496-.237-3.387a.61.61 0 00-.159-.63c-.158-.158-.396-.315-.633-.315-.396-.079-.792-.158-1.188-.158-1.505 0-2.535.63-1.98.71 1.03.157.95 2.363.712 3.308-.396 1.655-1.98-1.26-2.693-2.757-.079-.394-.396-.63-.792-.63H5.852c-.317 0-.554.078-.554.315 0 .393 1.98 4.254 3.801 6.224 1.822 1.89 3.644 1.733 4.911 1.733a.607.607 0 00.396-.158.6.6 0 00.158-.394c0-1.26.476-1.89 1.347-1.024.95.945 1.188 1.576 2.376 1.576h2.138c.555 0 .713-.158.713-.394.08-.552-.871-1.576-1.663-2.285zM13.852.001c7.366.157 13.226 6.066 13.147 13.235-.079 7.17-6.178 12.842-13.543 12.763C6.01 25.92.07 20.17.07 13 .15 5.753 6.327-.077 13.852.002z" />
  </symbol>

  <symbol viewBox="0 0 38 38" id="logo-mobile">
    <path d="M23.4335 10.1332C24.2581 10.1332 24.9547 10.6645 25.2169 11.3998H31.7833C32.0455 10.6645 32.7422 10.1332 33.5668 10.1332C34.6143 10.1332 35.4668 10.9856 35.4668 12.0331C35.4668 13.0807 34.6143 13.9331 33.5668 13.9331C32.7422 13.9331 32.0455 13.4018 31.7833 12.6665H25.2163C24.9541 13.4018 24.2574 13.9331 23.4328 13.9331C22.3853 13.9331 21.5328 13.0807 21.5328 12.0331C21.5328 10.9856 22.3859 10.1332 23.4335 10.1332ZM33.5668 12.6665C33.9158 12.6665 34.2001 12.3827 34.2001 12.0331C34.2001 11.6836 33.9158 11.3998 33.5668 11.3998C33.2178 11.3998 32.9335 11.6836 32.9335 12.0331C32.9335 12.3827 33.2178 12.6665 33.5668 12.6665ZM23.4335 12.6665C23.7824 12.6665 24.0668 12.3827 24.0668 12.0331C24.0668 11.6836 23.7824 11.3998 23.4335 11.3998C23.0845 11.3998 22.8001 11.6836 22.8001 12.0331C22.8001 12.3827 23.0845 12.6665 23.4335 12.6665Z" fill="#00B2FF" />
    <path d="M18.3667 14.0497V10.1332C18.3667 9.96475 18.4332 9.80388 18.5523 9.68545L21.0856 7.15216C21.2041 7.0331 21.3656 6.9666 21.5334 6.9666H23.5499C23.8121 6.23131 24.5088 5.69995 25.3334 5.69995C26.3809 5.69995 27.2334 6.5524 27.2334 7.59992C27.2334 8.64744 26.3809 9.49989 25.3334 9.49989C24.5088 9.49989 23.8121 8.96853 23.5499 8.23324H21.7956L19.6334 10.3954V14.0497C20.3687 14.3119 20.9001 15.0085 20.9001 15.8331C20.9001 16.8806 20.0476 17.7331 19.0001 17.7331C17.9525 17.7331 17.1001 16.8806 17.1001 15.8331C17.1001 15.0085 17.6314 14.3119 18.3667 14.0497ZM25.3334 8.23324C25.6824 8.23324 25.9667 7.94951 25.9667 7.59992C25.9667 7.25033 25.6824 6.9666 25.3334 6.9666C24.9844 6.9666 24.7001 7.25033 24.7001 7.59992C24.7001 7.94951 24.9844 8.23324 25.3334 8.23324ZM19.0001 16.4664C19.349 16.4664 19.6334 16.1827 19.6334 15.8331C19.6334 15.4835 19.349 15.1998 19.0001 15.1998C18.6511 15.1998 18.3667 15.4835 18.3667 15.8331C18.3667 16.1827 18.6511 16.4664 19.0001 16.4664Z" fill="#00B2FF" />
    <path d="M6.96667 16.4664C7.25927 16.4664 7.53287 16.538 7.7805 16.657L8.86667 15.5709V9.49984C8.86667 9.33138 8.93317 9.17051 9.05223 9.05208L15.3906 2.71379C15.2716 2.46616 15.2 2.19256 15.2 1.89997C15.2 0.852452 16.0525 0 17.1 0C18.1475 0 19 0.852452 19 1.89997C19 2.94748 18.1475 3.79994 17.1 3.79994C16.8074 3.79994 16.5338 3.72837 16.2862 3.60931L10.1333 9.76204V15.8331C10.1333 16.0015 10.0668 16.1624 9.94777 16.2808L8.67603 17.5525C8.7951 17.8002 8.86667 18.0738 8.86667 18.3664C8.86667 19.4139 8.0142 20.2663 6.96667 20.2663C5.91913 20.2663 5.06667 19.4139 5.06667 18.3664C5.06667 17.3188 5.91913 16.4664 6.96667 16.4664ZM17.1 2.53329C17.449 2.53329 17.7333 2.24956 17.7333 1.89997C17.7333 1.55037 17.449 1.26665 17.1 1.26665C16.751 1.26665 16.4667 1.55037 16.4667 1.89997C16.4667 2.24956 16.751 2.53329 17.1 2.53329ZM6.96667 18.9997C7.31563 18.9997 7.6 18.716 7.6 18.3664C7.6 18.0168 7.31563 17.733 6.96667 17.733C6.6177 17.733 6.33333 18.0168 6.33333 18.3664C6.33333 18.716 6.6177 18.9997 6.96667 18.9997Z" fill="#00B2FF" />
    <path d="M1.26696 8.98305V6.33323C1.26696 6.16476 1.33346 6.0039 1.45253 5.88547L5.88586 1.45221C6.00429 1.33314 6.16579 1.26665 6.33363 1.26665H9.61683C9.87903 0.531358 10.5757 0 11.4003 0C12.4478 0 13.3003 0.852452 13.3003 1.89997C13.3003 2.94748 12.4478 3.79994 11.4003 3.79994C10.5757 3.79994 9.87903 3.26858 9.61683 2.53329H6.59583L2.53363 6.59542V8.98305C3.26893 9.24525 3.80029 9.9419 3.80029 10.7665C3.80029 11.814 2.94783 12.6665 1.90029 12.6665C0.852759 12.6665 0.000292778 11.814 0.000292778 10.7665C0.000292778 9.9419 0.53166 9.24525 1.26696 8.98305ZM11.4003 2.53329C11.7493 2.53329 12.0336 2.24956 12.0336 1.89997C12.0336 1.55037 11.7493 1.26665 11.4003 1.26665C11.0513 1.26665 10.767 1.55037 10.767 1.89997C10.767 2.24956 11.0513 2.53329 11.4003 2.53329ZM1.90029 11.3998C2.24926 11.3998 2.53363 11.1161 2.53363 10.7665C2.53363 10.4169 2.24926 10.1332 1.90029 10.1332C1.55133 10.1332 1.26696 10.4169 1.26696 10.7665C1.26696 11.1161 1.55133 11.3998 1.90029 11.3998Z" fill="#00B2FF" />
    <path d="M10.133 34.3166V25.2164C9.39833 24.9542 8.86696 24.2575 8.86696 23.4329C8.86696 22.3854 9.71943 21.533 10.767 21.533C11.5916 21.533 12.2882 22.0643 12.5504 22.7996H19.1168C19.379 22.0643 20.0757 21.533 20.9003 21.533C21.7249 21.533 22.4216 22.0643 22.6838 22.7996H26.3381L28.6909 20.4468C28.5719 20.1992 28.5003 19.9256 28.5003 19.633C28.5003 18.5855 29.3528 17.733 30.4003 17.733C31.4478 17.733 32.3003 18.5855 32.3003 19.633C32.3003 20.6805 31.4478 21.533 30.4003 21.533C30.1077 21.533 29.8341 21.4614 29.5865 21.3423L27.0481 23.8807C26.9296 23.9998 26.7681 24.0663 26.6003 24.0663H22.6838C22.4216 24.8015 21.7249 25.3329 20.9003 25.3329C20.0757 25.3329 19.379 24.8015 19.1168 24.0663H12.5498C12.3585 24.6027 11.9361 25.0251 11.3997 25.2164V34.3166C12.135 34.5788 12.6663 35.2754 12.6663 36.1C12.6663 37.1475 11.8139 38 10.7663 38C9.71879 38 8.86633 37.1475 8.86633 36.1C8.86633 35.2754 9.39769 34.5788 10.133 34.3166ZM30.4003 20.2663C30.7493 20.2663 31.0336 19.9826 31.0336 19.633C31.0336 19.2834 30.7493 18.9997 30.4003 18.9997C30.0513 18.9997 29.767 19.2834 29.767 19.633C29.767 19.9826 30.0513 20.2663 30.4003 20.2663ZM20.9003 24.0663C21.2493 24.0663 21.5336 23.7825 21.5336 23.4329C21.5336 23.0833 21.2493 22.7996 20.9003 22.7996C20.5513 22.7996 20.267 23.0833 20.267 23.4329C20.267 23.7825 20.5513 24.0663 20.9003 24.0663ZM10.767 36.7327C11.1159 36.7327 11.4003 36.449 11.4003 36.0994C11.4003 35.7498 11.1159 35.4661 10.767 35.4661C10.418 35.4661 10.1336 35.7498 10.1336 36.0994C10.1336 36.449 10.418 36.7327 10.767 36.7327ZM10.767 24.0663C11.1159 24.0663 11.4003 23.7825 11.4003 23.4329C11.4003 23.0833 11.1159 22.7996 10.767 22.7996C10.418 22.7996 10.1336 23.0833 10.1336 23.4329C10.1336 23.7825 10.418 24.0663 10.767 24.0663Z" fill="#00B2FF" />
    <path d="M13.2998 12.783V10.7665C13.2998 10.598 13.3663 10.4372 13.4853 10.3187L21.0904 2.71379C20.9713 2.46616 20.8998 2.19256 20.8998 1.89997C20.8998 0.852452 21.7522 0 22.7998 0C23.6244 0 24.321 0.531358 24.5832 1.26665H27.2331C27.5827 1.26665 27.8664 1.54974 27.8664 1.89997V3.53774L30.2193 5.89053C30.4669 5.77147 30.7405 5.6999 31.0331 5.6999C32.0806 5.6999 32.9331 6.55236 32.9331 7.59987C32.9331 8.64739 32.0806 9.49984 31.0331 9.49984C29.9856 9.49984 29.1331 8.64739 29.1331 7.59987C29.1331 7.30728 29.2047 7.03368 29.3237 6.78605L26.7853 4.2477C26.6663 4.12926 26.5998 3.9684 26.5998 3.79994V2.53329H24.5832C24.321 3.26858 23.6244 3.79994 22.7998 3.79994C22.5072 3.79994 22.2336 3.72837 21.9859 3.60931L14.5664 11.0287V12.783C15.3017 13.0452 15.8331 13.7418 15.8331 14.5664C15.8331 15.6139 14.9806 16.4664 13.9331 16.4664C12.8856 16.4664 12.0331 15.6139 12.0331 14.5664C12.0331 13.7418 12.5645 13.0452 13.2998 12.783ZM31.0331 8.2332C31.3821 8.2332 31.6664 7.94947 31.6664 7.59987C31.6664 7.25028 31.3821 6.96655 31.0331 6.96655C30.6841 6.96655 30.3998 7.25028 30.3998 7.59987C30.3998 7.94947 30.6841 8.2332 31.0331 8.2332ZM22.7998 2.53329C23.1487 2.53329 23.4331 2.24956 23.4331 1.89997C23.4331 1.55037 23.1487 1.26665 22.7998 1.26665C22.4508 1.26665 22.1664 1.55037 22.1664 1.89997C22.1664 2.24956 22.4508 2.53329 22.7998 2.53329ZM13.9331 15.1997C14.2821 15.1997 14.5664 14.916 14.5664 14.5664C14.5664 14.2168 14.2821 13.9331 13.9331 13.9331C13.5841 13.9331 13.2998 14.2168 13.2998 14.5664C13.2998 14.916 13.5841 15.1997 13.9331 15.1997Z" fill="#00B2FF" />
    <path d="M15.2 17.733C16.0246 17.733 16.7213 18.2644 16.9835 18.9997H24.4378L28.0522 15.3853C28.1707 15.2662 28.3322 15.1997 28.5 15.1997H35.2045L36.7333 13.6709V8.49539L31.8472 3.60931C31.5995 3.72837 31.3259 3.79994 31.0333 3.79994C29.9858 3.79994 29.1333 2.94748 29.1333 1.89997C29.1333 0.852452 29.9858 0 31.0333 0C32.0809 0 32.9333 0.852452 32.9333 1.89997C32.9333 2.19256 32.8618 2.46616 32.7427 2.71379L37.8144 7.78544C37.9335 7.90387 38 8.06473 38 8.2332V13.9331C38 14.1016 37.9335 14.2624 37.8144 14.3809L35.9144 16.2808C35.796 16.3999 35.6345 16.4664 35.4667 16.4664H28.7622L25.1478 20.0808C25.0293 20.1998 24.8678 20.2663 24.7 20.2663H16.9835C16.7213 21.0016 16.0246 21.533 15.2 21.533C14.1525 21.533 13.3 20.6805 13.3 19.633C13.3 18.5855 14.1525 17.733 15.2 17.733ZM31.0333 1.26665C30.6844 1.26665 30.4 1.55037 30.4 1.89997C30.4 2.24956 30.6844 2.53329 31.0333 2.53329C31.3823 2.53329 31.6667 2.24956 31.6667 1.89997C31.6667 1.55037 31.3823 1.26665 31.0333 1.26665ZM15.2 20.2663C15.549 20.2663 15.8333 19.9826 15.8333 19.633C15.8333 19.2834 15.549 18.9997 15.2 18.9997C14.851 18.9997 14.5667 19.2834 14.5667 19.633C14.5667 19.9826 14.851 20.2663 15.2 20.2663Z" fill="#00B2FF" />
    <path d="M1.90052 15.1998C2.19312 15.1998 2.46672 15.2714 2.71435 15.3904L5.06719 13.0376V9.38336C4.33189 9.12116 3.80052 8.42451 3.80052 7.59992C3.80052 6.5524 4.65299 5.69995 5.70052 5.69995C6.74805 5.69995 7.60052 6.5524 7.60052 7.59992C7.60052 8.42451 7.06915 9.12116 6.33385 9.38336V13.2998C6.33385 13.4683 6.26735 13.6292 6.14829 13.7476L3.60989 16.2859C3.72896 16.5336 3.80052 16.8072 3.80052 17.0998C3.80052 17.9243 3.26915 18.621 2.53385 18.8832V19.3709L7.41495 24.2519C7.53402 24.3703 7.60052 24.5312 7.60052 24.6996V25.4495C8.33582 25.7117 8.86719 26.4083 8.86719 27.2329C8.86719 28.0575 8.33582 28.7542 7.60052 29.0164V30.5167C8.33582 30.7789 8.86719 31.4756 8.86719 32.3001C8.86719 33.3477 8.01472 34.2001 6.96719 34.2001C5.91965 34.2001 5.06719 33.3477 5.06719 32.3001C5.06719 31.4756 5.59855 30.7789 6.33385 30.5167V29.0164C5.59855 28.7542 5.06719 28.0575 5.06719 27.2329C5.06719 26.4083 5.59855 25.7117 6.33385 25.4495V24.9618L1.45275 20.0808C1.33369 19.9624 1.26719 19.8015 1.26719 19.6331V18.8832C0.531888 18.621 0.000520706 17.9243 0.000520706 17.0998C0.000520706 16.0522 0.852987 15.1998 1.90052 15.1998ZM5.70052 8.23324C6.04949 8.23324 6.33385 7.94951 6.33385 7.59992C6.33385 7.25033 6.04949 6.9666 5.70052 6.9666C5.35155 6.9666 5.06719 7.25033 5.06719 7.59992C5.06719 7.94951 5.35155 8.23324 5.70052 8.23324ZM6.96719 32.9328C7.31615 32.9328 7.60052 32.6491 7.60052 32.2995C7.60052 31.9499 7.31615 31.6662 6.96719 31.6662C6.61822 31.6662 6.33385 31.9499 6.33385 32.2995C6.33385 32.6491 6.61822 32.9328 6.96719 32.9328ZM6.96719 27.8662C7.31615 27.8662 7.60052 27.5825 7.60052 27.2329C7.60052 26.8833 7.31615 26.5996 6.96719 26.5996C6.61822 26.5996 6.33385 26.8833 6.33385 27.2329C6.33385 27.5825 6.61822 27.8662 6.96719 27.8662ZM1.90052 17.7331C2.24949 17.7331 2.53385 17.4494 2.53385 17.0998C2.53385 16.7502 2.24949 16.4664 1.90052 16.4664C1.55155 16.4664 1.26719 16.7502 1.26719 17.0998C1.26719 17.4494 1.55155 17.7331 1.90052 17.7331Z" fill="#00B2FF" />
  </symbol>


</svg>
